<svg width="156" height="156" viewBox="0 0 156 156" fill="none" xmlns="http://www.w3.org/2000/svg">
<mask id="path-1-inside-1_204_5242" fill="white">
<path d="M77.9014 6.60001C77.9014 2.95493 80.8618 -0.0290496 84.4938 0.279389C97.7181 1.40242 110.476 5.89018 121.531 13.3641C134.415 22.0737 144.396 34.44 150.192 48.8711C155.987 63.3021 157.33 79.1373 154.049 94.3384C150.768 109.539 143.012 123.411 131.78 134.166C120.548 144.922 106.354 152.07 91.0252 154.689C75.6963 157.309 59.9341 155.281 45.7675 148.867C31.601 142.452 19.6786 131.944 11.5351 118.695C4.54701 107.327 0.615978 94.3864 0.0667133 81.126C-0.0841408 77.484 3.02524 74.6556 6.6669 74.8135L32.3934 75.9287C36.0351 76.0866 38.8015 79.185 39.2601 82.8011C39.9538 88.2714 41.8045 93.5581 44.7183 98.2984C48.79 104.923 54.7512 110.177 61.8345 113.384C68.9177 116.591 76.7989 117.605 84.4633 116.295C92.1278 114.986 99.2248 111.412 104.841 106.034C110.457 100.656 114.335 93.7205 115.975 86.1199C117.616 78.5194 116.944 70.6018 114.047 63.3862C111.149 56.1707 106.158 49.9876 99.7163 45.6328C95.1067 42.5165 89.9051 40.4385 84.47 39.5085C80.8771 38.8938 77.9014 35.9958 77.9014 32.3507V6.60001Z"/>
</mask>
<path d="M77.9014 6.60001C77.9014 2.95493 80.8618 -0.0290496 84.4938 0.279389C97.7181 1.40242 110.476 5.89018 121.531 13.3641C134.415 22.0737 144.396 34.44 150.192 48.8711C155.987 63.3021 157.33 79.1373 154.049 94.3384C150.768 109.539 143.012 123.411 131.78 134.166C120.548 144.922 106.354 152.07 91.0252 154.689C75.6963 157.309 59.9341 155.281 45.7675 148.867C31.601 142.452 19.6786 131.944 11.5351 118.695C4.54701 107.327 0.615978 94.3864 0.0667133 81.126C-0.0841408 77.484 3.02524 74.6556 6.6669 74.8135L32.3934 75.9287C36.0351 76.0866 38.8015 79.185 39.2601 82.8011C39.9538 88.2714 41.8045 93.5581 44.7183 98.2984C48.79 104.923 54.7512 110.177 61.8345 113.384C68.9177 116.591 76.7989 117.605 84.4633 116.295C92.1278 114.986 99.2248 111.412 104.841 106.034C110.457 100.656 114.335 93.7205 115.975 86.1199C117.616 78.5194 116.944 70.6018 114.047 63.3862C111.149 56.1707 106.158 49.9876 99.7163 45.6328C95.1067 42.5165 89.9051 40.4385 84.47 39.5085C80.8771 38.8938 77.9014 35.9958 77.9014 32.3507V6.60001Z" fill="#0FB957" stroke="white" stroke-width="5.28" mask="url(#path-1-inside-1_204_5242)"/>
<mask id="path-2-inside-2_204_5242" fill="white">
<path d="M6.76445 73.0616C3.12777 72.8141 0.351621 69.6578 0.905815 66.0551C3.53432 48.9677 11.7887 33.1692 24.4579 21.2231C37.1272 9.27691 53.383 1.96409 70.5951 0.343121C74.2242 0.00135479 77.2121 2.95799 77.2456 6.60292L77.4825 32.3525C77.516 35.9975 74.567 38.9227 70.9799 39.5704C63.5971 40.9036 56.706 44.3513 51.1797 49.5622C45.6534 54.7731 41.8071 61.4499 40.0429 68.7417C39.1857 72.2846 36.0924 75.0569 32.4558 74.8095L6.76445 73.0616Z"/>
</mask>
<path d="M6.76445 73.0616C3.12777 72.8141 0.351621 69.6578 0.905815 66.0551C3.53432 48.9677 11.7887 33.1692 24.4579 21.2231C37.1272 9.27691 53.383 1.96409 70.5951 0.343121C74.2242 0.00135479 77.2121 2.95799 77.2456 6.60292L77.4825 32.3525C77.516 35.9975 74.567 38.9227 70.9799 39.5704C63.5971 40.9036 56.706 44.3513 51.1797 49.5622C45.6534 54.7731 41.8071 61.4499 40.0429 68.7417C39.1857 72.2846 36.0924 75.0569 32.4558 74.8095L6.76445 73.0616Z" fill="#E93863" stroke="white" stroke-width="5.28" mask="url(#path-2-inside-2_204_5242)"/>
<path d="M63.8556 81.0452V82H56.5098V71.066H63.717V72.0208H57.5878V75.9632H62.9316V76.8718H57.5878V81.0452H63.8556ZM67.5954 82L64.346 73.9766H65.4394L68.1806 80.9528L70.9372 73.9766H71.969L68.7196 82H67.5954ZM76.4446 82.154C75.8697 82.154 75.3358 82.0462 74.843 81.8306C74.3502 81.6047 73.9242 81.3019 73.5648 80.922C73.2055 80.5319 72.9232 80.0853 72.7178 79.5822C72.5228 79.0791 72.4252 78.5401 72.4252 77.9652C72.4252 77.2157 72.5946 76.5279 72.9334 75.9016C73.2825 75.2753 73.7599 74.7774 74.3656 74.4078C74.9714 74.0279 75.6592 73.838 76.4292 73.838C77.2198 73.838 77.9076 74.0279 78.4928 74.4078C79.0883 74.7877 79.5554 75.2907 79.8942 75.917C80.233 76.533 80.4024 77.2106 80.4024 77.9498C80.4024 78.0319 80.4024 78.1141 80.4024 78.1962C80.4024 78.2681 80.3973 78.3245 80.387 78.3656H73.5186C73.57 78.9405 73.7291 79.4539 73.996 79.9056C74.2732 80.3471 74.6274 80.7013 75.0586 80.9682C75.5001 81.2249 75.9775 81.3532 76.4908 81.3532C77.0144 81.3532 77.5072 81.2197 77.9692 80.9528C78.4415 80.6859 78.77 80.3368 78.9548 79.9056L79.8634 80.152C79.6992 80.5319 79.4476 80.8758 79.1088 81.1838C78.77 81.4918 78.3696 81.7331 77.9076 81.9076C77.4559 82.0719 76.9682 82.154 76.4446 82.154ZM73.4878 77.611H79.4168C79.3758 77.0258 79.2166 76.5125 78.9394 76.071C78.6725 75.6295 78.3183 75.2856 77.8768 75.0392C77.4456 74.7825 76.9682 74.6542 76.4446 74.6542C75.921 74.6542 75.4436 74.7825 75.0124 75.0392C74.5812 75.2856 74.227 75.6347 73.9498 76.0864C73.6829 76.5279 73.5289 77.0361 73.4878 77.611ZM88.5939 82H87.5467V77.5186C87.5467 76.5741 87.4081 75.8862 87.1309 75.455C86.8537 75.0135 86.4174 74.7928 85.8219 74.7928C85.4113 74.7928 85.0057 74.8955 84.6053 75.1008C84.2049 75.2959 83.8507 75.5679 83.5427 75.917C83.245 76.2558 83.0294 76.6459 82.8959 77.0874V82H81.8487V73.9766H82.8035V75.7938C83.0191 75.4037 83.3015 75.0649 83.6505 74.7774C83.9996 74.4797 84.3949 74.2487 84.8363 74.0844C85.2778 73.9201 85.7347 73.838 86.2069 73.838C86.6484 73.838 87.0231 73.9201 87.3311 74.0844C87.6391 74.2487 87.8855 74.4848 88.0703 74.7928C88.2551 75.0905 88.3886 75.455 88.4707 75.8862C88.5529 76.3071 88.5939 76.7794 88.5939 77.303V82ZM94.4324 81.615C94.3503 81.6458 94.222 81.7023 94.0474 81.7844C93.8729 81.8665 93.6624 81.9384 93.416 82C93.1696 82.0616 92.9027 82.0924 92.6152 82.0924C92.3175 82.0924 92.0352 82.0359 91.7682 81.923C91.5116 81.8101 91.3062 81.6407 91.1522 81.4148C90.9982 81.1787 90.9212 80.8912 90.9212 80.5524V74.8082H89.8124V73.9766H90.9212V71.2662H91.9684V73.9766H93.8164V74.8082H91.9684V80.2598C91.989 80.5473 92.0916 80.7629 92.2764 80.9066C92.4715 81.0503 92.6922 81.1222 92.9386 81.1222C93.2261 81.1222 93.4879 81.076 93.724 80.9836C93.9602 80.8809 94.1039 80.8091 94.1552 80.768L94.4324 81.615ZM98.2048 82.154C97.5478 82.154 96.9369 82.0462 96.3722 81.8306C95.8076 81.615 95.3199 81.2865 94.9092 80.845L95.3404 80.1058C95.7922 80.5267 96.2439 80.8347 96.6956 81.0298C97.1576 81.2146 97.6453 81.307 98.1586 81.307C98.7849 81.307 99.2931 81.1838 99.6832 80.9374C100.073 80.6807 100.268 80.3163 100.268 79.844C100.268 79.5257 100.171 79.2845 99.9758 79.1202C99.791 78.9457 99.519 78.8071 99.1596 78.7044C98.8106 78.5915 98.3896 78.4734 97.8968 78.3502C97.3424 78.1962 96.8753 78.0371 96.4954 77.8728C96.1258 77.6983 95.8435 77.4827 95.6484 77.226C95.4636 76.9591 95.3712 76.6151 95.3712 76.1942C95.3712 75.6706 95.4996 75.2394 95.7562 74.9006C96.0232 74.5515 96.3825 74.2897 96.8342 74.1152C97.2962 73.9304 97.8096 73.838 98.3742 73.838C98.9902 73.838 99.5344 73.9355 100.007 74.1306C100.479 74.3257 100.864 74.5977 101.162 74.9468L100.653 75.6552C100.366 75.3267 100.022 75.0854 99.6216 74.9314C99.2315 74.7671 98.7952 74.685 98.3126 74.685C97.9841 74.685 97.671 74.7312 97.3732 74.8236C97.0755 74.9057 96.8291 75.0495 96.634 75.2548C96.4492 75.4499 96.3568 75.7219 96.3568 76.071C96.3568 76.3585 96.4287 76.5843 96.5724 76.7486C96.7162 76.9026 96.9318 77.0361 97.2192 77.149C97.5067 77.2517 97.8609 77.3646 98.2818 77.4878C98.8876 77.6521 99.4163 77.8215 99.868 77.996C100.32 78.1603 100.669 78.3759 100.915 78.6428C101.162 78.9097 101.285 79.2845 101.285 79.767C101.285 80.5165 101.003 81.1017 100.438 81.5226C99.8732 81.9435 99.1288 82.154 98.2048 82.154Z" fill="#4D4D4D"/>
</svg>
