<svg width="156" height="156" viewBox="0 0 156 156" fill="none" xmlns="http://www.w3.org/2000/svg">
<mask id="path-1-inside-1_208_1086" fill="white">
<path d="M77.9014 6.60001C77.9014 2.95493 80.8618 -0.0290496 84.4938 0.279389C97.7181 1.40242 110.476 5.89018 121.531 13.3641C134.415 22.0737 144.396 34.44 150.192 48.8711C155.987 63.3021 157.33 79.1373 154.049 94.3384C150.768 109.539 143.012 123.411 131.78 134.166C120.548 144.922 106.354 152.07 91.0252 154.689C75.6963 157.309 59.9341 155.281 45.7675 148.867C31.601 142.452 19.6786 131.944 11.5351 118.695C4.54701 107.327 0.615978 94.3864 0.0667133 81.126C-0.0841408 77.484 3.02524 74.6556 6.6669 74.8135L32.3934 75.9287C36.0351 76.0866 38.8015 79.185 39.2601 82.8011C39.9538 88.2714 41.8045 93.5581 44.7183 98.2984C48.79 104.923 54.7512 110.177 61.8345 113.384C68.9177 116.591 76.7989 117.605 84.4633 116.295C92.1278 114.986 99.2248 111.412 104.841 106.034C110.457 100.656 114.335 93.7205 115.975 86.1199C117.616 78.5194 116.944 70.6018 114.047 63.3862C111.149 56.1707 106.158 49.9876 99.7163 45.6328C95.1067 42.5165 89.9051 40.4385 84.47 39.5085C80.8771 38.8938 77.9014 35.9958 77.9014 32.3507V6.60001Z"/>
</mask>
<path d="M77.9014 6.60001C77.9014 2.95493 80.8618 -0.0290496 84.4938 0.279389C97.7181 1.40242 110.476 5.89018 121.531 13.3641C134.415 22.0737 144.396 34.44 150.192 48.8711C155.987 63.3021 157.33 79.1373 154.049 94.3384C150.768 109.539 143.012 123.411 131.78 134.166C120.548 144.922 106.354 152.07 91.0252 154.689C75.6963 157.309 59.9341 155.281 45.7675 148.867C31.601 142.452 19.6786 131.944 11.5351 118.695C4.54701 107.327 0.615978 94.3864 0.0667133 81.126C-0.0841408 77.484 3.02524 74.6556 6.6669 74.8135L32.3934 75.9287C36.0351 76.0866 38.8015 79.185 39.2601 82.8011C39.9538 88.2714 41.8045 93.5581 44.7183 98.2984C48.79 104.923 54.7512 110.177 61.8345 113.384C68.9177 116.591 76.7989 117.605 84.4633 116.295C92.1278 114.986 99.2248 111.412 104.841 106.034C110.457 100.656 114.335 93.7205 115.975 86.1199C117.616 78.5194 116.944 70.6018 114.047 63.3862C111.149 56.1707 106.158 49.9876 99.7163 45.6328C95.1067 42.5165 89.9051 40.4385 84.47 39.5085C80.8771 38.8938 77.9014 35.9958 77.9014 32.3507V6.60001Z" fill="#0FB957" stroke="white" stroke-width="5.28" mask="url(#path-1-inside-1_208_1086)"/>
<mask id="path-2-inside-2_208_1086" fill="white">
<path d="M6.76445 73.0616C3.12777 72.8141 0.351621 69.6578 0.905815 66.0551C3.53432 48.9677 11.7887 33.1692 24.4579 21.2231C37.1272 9.27691 53.383 1.96409 70.5951 0.343121C74.2242 0.00135479 77.2121 2.95799 77.2456 6.60292L77.4825 32.3525C77.516 35.9975 74.567 38.9227 70.9799 39.5704C63.5971 40.9036 56.706 44.3513 51.1797 49.5622C45.6534 54.7731 41.8071 61.4499 40.0429 68.7417C39.1857 72.2846 36.0924 75.0569 32.4558 74.8095L6.76445 73.0616Z"/>
</mask>
<path d="M6.76445 73.0616C3.12777 72.8141 0.351621 69.6578 0.905815 66.0551C3.53432 48.9677 11.7887 33.1692 24.4579 21.2231C37.1272 9.27691 53.383 1.96409 70.5951 0.343121C74.2242 0.00135479 77.2121 2.95799 77.2456 6.60292L77.4825 32.3525C77.516 35.9975 74.567 38.9227 70.9799 39.5704C63.5971 40.9036 56.706 44.3513 51.1797 49.5622C45.6534 54.7731 41.8071 61.4499 40.0429 68.7417C39.1857 72.2846 36.0924 75.0569 32.4558 74.8095L6.76445 73.0616Z" fill="#E93863" stroke="white" stroke-width="5.28" mask="url(#path-2-inside-2_208_1086)"/>
<path d="M62.3823 72.0208H58.4861V82H57.4081V72.0208H53.5119V71.066H62.3823V72.0208ZM63.6351 82V73.9766H64.6823V82H63.6351ZM63.6351 72.298V70.758H64.6823V72.298H63.6351ZM70.2998 82.154C69.7146 82.154 69.1756 82.0462 68.6828 81.8306C68.2003 81.6047 67.7742 81.2967 67.4046 80.9066C67.0453 80.5165 66.763 80.0699 66.5576 79.5668C66.3626 79.0637 66.265 78.5299 66.265 77.9652C66.265 77.2055 66.4344 76.5125 66.7732 75.8862C67.112 75.2599 67.5843 74.762 68.19 74.3924C68.7958 74.0228 69.4939 73.838 70.2844 73.838C71.0339 73.838 71.6961 74.0125 72.271 74.3616C72.846 74.7004 73.272 75.1624 73.5492 75.7476L72.5328 76.071C72.307 75.6603 71.9887 75.3421 71.578 75.1162C71.1776 74.8801 70.731 74.762 70.2382 74.762C69.7044 74.762 69.2167 74.9006 68.7752 75.1778C68.3338 75.455 67.9796 75.8349 67.7126 76.3174C67.456 76.7999 67.3276 77.3492 67.3276 77.9652C67.3276 78.5709 67.4611 79.1202 67.728 79.613C67.995 80.1058 68.3492 80.5011 68.7906 80.7988C69.2321 81.0863 69.7198 81.23 70.2536 81.23C70.6027 81.23 70.9364 81.1684 71.2546 81.0452C71.5832 80.922 71.8655 80.7577 72.1016 80.5524C72.348 80.3368 72.5123 80.1058 72.5944 79.8594L73.6262 80.1674C73.4825 80.5473 73.2412 80.8912 72.9024 81.1992C72.5739 81.4969 72.1838 81.7331 71.732 81.9076C71.2906 82.0719 70.8132 82.154 70.2998 82.154ZM80.8308 82L77.8586 77.8882L76.1492 79.4898V82H75.102V70.758H76.1492V78.3656L80.6922 73.992H81.8472L78.567 77.2722L81.9704 82H80.8308ZM86.1427 82.154C85.5678 82.154 85.0339 82.0462 84.5411 81.8306C84.0483 81.6047 83.6222 81.3019 83.2629 80.922C82.9036 80.5319 82.6212 80.0853 82.4159 79.5822C82.2208 79.0791 82.1233 78.5401 82.1233 77.9652C82.1233 77.2157 82.2927 76.5279 82.6315 75.9016C82.9806 75.2753 83.458 74.7774 84.0637 74.4078C84.6694 74.0279 85.3573 73.838 86.1273 73.838C86.9178 73.838 87.6057 74.0279 88.1909 74.4078C88.7864 74.7877 89.2535 75.2907 89.5923 75.917C89.9311 76.533 90.1005 77.2106 90.1005 77.9498C90.1005 78.0319 90.1005 78.1141 90.1005 78.1962C90.1005 78.2681 90.0954 78.3245 90.0851 78.3656H83.2167C83.268 78.9405 83.4272 79.4539 83.6941 79.9056C83.9713 80.3471 84.3255 80.7013 84.7567 80.9682C85.1982 81.2249 85.6756 81.3532 86.1889 81.3532C86.7125 81.3532 87.2053 81.2197 87.6673 80.9528C88.1396 80.6859 88.4681 80.3368 88.6529 79.9056L89.5615 80.152C89.3972 80.5319 89.1457 80.8758 88.8069 81.1838C88.4681 81.4918 88.0677 81.7331 87.6057 81.9076C87.154 82.0719 86.6663 82.154 86.1427 82.154ZM83.1859 77.611H89.1149C89.0738 77.0258 88.9147 76.5125 88.6375 76.071C88.3706 75.6295 88.0164 75.2856 87.5749 75.0392C87.1437 74.7825 86.6663 74.6542 86.1427 74.6542C85.6191 74.6542 85.1417 74.7825 84.7105 75.0392C84.2793 75.2856 83.9251 75.6347 83.6479 76.0864C83.381 76.5279 83.227 77.0361 83.1859 77.611ZM95.3216 81.615C95.2394 81.6458 95.1111 81.7023 94.9366 81.7844C94.762 81.8665 94.5516 81.9384 94.3052 82C94.0588 82.0616 93.7918 82.0924 93.5044 82.0924C93.2066 82.0924 92.9243 82.0359 92.6574 81.923C92.4007 81.8101 92.1954 81.6407 92.0414 81.4148C91.8874 81.1787 91.8104 80.8912 91.8104 80.5524V74.8082H90.7016V73.9766H91.8104V71.2662H92.8576V73.9766H94.7056V74.8082H92.8576V80.2598C92.8781 80.5473 92.9808 80.7629 93.1656 80.9066C93.3606 81.0503 93.5814 81.1222 93.8278 81.1222C94.1152 81.1222 94.377 81.076 94.6132 80.9836C94.8493 80.8809 94.993 80.8091 95.0444 80.768L95.3216 81.615ZM99.094 82.154C98.4369 82.154 97.826 82.0462 97.2614 81.8306C96.6967 81.615 96.209 81.2865 95.7984 80.845L96.2296 80.1058C96.6813 80.5267 97.133 80.8347 97.5848 81.0298C98.0468 81.2146 98.5344 81.307 99.0478 81.307C99.674 81.307 100.182 81.1838 100.572 80.9374C100.963 80.6807 101.158 80.3163 101.158 79.844C101.158 79.5257 101.06 79.2845 100.865 79.1202C100.68 78.9457 100.408 78.8071 100.049 78.7044C99.6997 78.5915 99.2788 78.4734 98.786 78.3502C98.2316 78.1962 97.7644 78.0371 97.3846 77.8728C97.015 77.6983 96.7326 77.4827 96.5376 77.226C96.3528 76.9591 96.2604 76.6151 96.2604 76.1942C96.2604 75.6706 96.3887 75.2394 96.6454 74.9006C96.9123 74.5515 97.2716 74.2897 97.7234 74.1152C98.1854 73.9304 98.6987 73.838 99.2634 73.838C99.8794 73.838 100.424 73.9355 100.896 74.1306C101.368 74.3257 101.753 74.5977 102.051 74.9468L101.543 75.6552C101.255 75.3267 100.911 75.0854 100.511 74.9314C100.121 74.7671 99.6843 74.685 99.2018 74.685C98.8732 74.685 98.5601 74.7312 98.2624 74.8236C97.9646 74.9057 97.7182 75.0495 97.5232 75.2548C97.3384 75.4499 97.246 75.7219 97.246 76.071C97.246 76.3585 97.3178 76.5843 97.4616 76.7486C97.6053 76.9026 97.8209 77.0361 98.1084 77.149C98.3958 77.2517 98.75 77.3646 99.171 77.4878C99.7767 77.6521 100.305 77.8215 100.757 77.996C101.209 78.1603 101.558 78.3759 101.804 78.6428C102.051 78.9097 102.174 79.2845 102.174 79.767C102.174 80.5165 101.892 81.1017 101.327 81.5226C100.762 81.9435 100.018 82.154 99.094 82.154Z" fill="#4D4D4D"/>
</svg>
