<svg width="40" height="40" viewBox="0 0 40 40" fill="none" xmlns="http://www.w3.org/2000/svg">
<path d="M30.2333 36.0332C28.7666 36.4666 27.0333 36.6666 24.9999 36.6666H14.9999C12.9666 36.6666 11.2333 36.4666 9.7666 36.0332C10.1333 31.6999 14.5833 28.2832 19.9999 28.2832C25.4166 28.2832 29.8666 31.6999 30.2333 36.0332Z" stroke="#292D32" stroke-width="1.5" stroke-linecap="round" stroke-linejoin="round"/>
<path d="M24.9999 3.3335H14.9999C6.66659 3.3335 3.33325 6.66683 3.33325 15.0002V25.0002C3.33325 31.3002 5.23325 34.7502 9.76659 36.0335C10.1333 31.7002 14.5833 28.2834 19.9999 28.2834C25.4166 28.2834 29.8666 31.7002 30.2333 36.0335C34.7666 34.7502 36.6666 31.3002 36.6666 25.0002V15.0002C36.6666 6.66683 33.3333 3.3335 24.9999 3.3335ZM19.9999 23.6168C16.6999 23.6168 14.0332 20.9335 14.0332 17.6335C14.0332 14.3335 16.6999 11.6668 19.9999 11.6668C23.2999 11.6668 25.9666 14.3335 25.9666 17.6335C25.9666 20.9335 23.2999 23.6168 19.9999 23.6168Z" stroke="#292D32" stroke-width="1.5" stroke-linecap="round" stroke-linejoin="round"/>
<path d="M25.9668 17.6332C25.9668 20.9332 23.3001 23.6165 20.0001 23.6165C16.7001 23.6165 14.0334 20.9332 14.0334 17.6332C14.0334 14.3332 16.7001 11.6665 20.0001 11.6665C23.3001 11.6665 25.9668 14.3332 25.9668 17.6332Z" stroke="#292D32" stroke-width="1.5" stroke-linecap="round" stroke-linejoin="round"/>
</svg>
